<?xml version="1.0" encoding="utf-8"?>
<!-- Generator: Adobe Illustrator 27.3.1, SVG Export Plug-In . SVG Version: 6.00 Build 0)  -->
<svg version="1.1" id="Layer_1" xmlns="http://www.w3.org/2000/svg" xmlns:xlink="http://www.w3.org/1999/xlink" x="0px" y="0px"
	 viewBox="0 0 150 365.2" style="enable-background:new 0 0 150 365.2;" xml:space="preserve">
<style type="text/css">
	.st0{fill:#FF0000;}
</style>
<path class="st0" d="M75,0C33.8,0,0,33.7,0,75v1.2h-0.1v8H0v10.5h-0.1v8H0v10.6h-0.1v8H0v10.5h-0.1v8H0v10.6h-0.1v8H0v10.5h-0.1v8H0
	v10.6h-0.1v8H0V206h-0.1v8H0v10.6h-0.1v8H0v10.5h-0.1v8H0v10.6h-0.1v8H0v10.5h-0.1v8H0v2c0,41.2,33.8,75,75,75s75-33.7,75-75V75
	C150,33.7,116.2,0,75,0z M32.6,28.5h84.8c0.7,0.7,1.4,1.3,2.1,2c2.7,2.7,5,5.6,7.2,8.6H23.3c2.1-3,4.5-5.9,7.2-8.6
	C31.2,29.8,31.9,29.2,32.6,28.5z M131.4,47.1c1.7,3.4,3.1,6.9,4.1,10.5h-121c1-3.6,2.4-7.1,4.1-10.5H131.4z M106.5,20.5H43.5
	C53,15,63.8,12,75,12S97,15,106.5,20.5z M12,75c0-3.2,0.2-6.3,0.7-9.4h124.6c0.5,3.1,0.7,6.2,0.7,9.4v1.2H12V75z M12,84.2h126v10.5
	H12V84.2z M12,102.7h126v10.6H12V102.7z M12,121.3h126v10.5H12V121.3z M12,139.8h126v10.6H12V139.8z M12,158.4h126v10.5H12V158.4z
	 M12,176.9h126v10.6H12V176.9z M12,195.5h126V206H12V195.5z M12,214h126v10.6H12V214z M12,232.6h126v10.5H12V232.6z M12,251.1h126
	v10.6H12V251.1z M12,269.7h126v10.5H12V269.7z M138,288.2v2c0,2.9-0.2,5.8-0.6,8.6H12.6c-0.4-2.8-0.6-5.7-0.6-8.6v-2H138z
	 M118.2,335.9H31.8c-0.4-0.4-0.9-0.8-1.3-1.2c-2.9-2.9-5.5-6.1-7.7-9.4h104.4c-2.2,3.3-4.8,6.5-7.7,9.4
	C119.1,335.1,118.7,335.5,118.2,335.9z M18.2,317.3c-1.6-3.4-2.9-6.9-3.9-10.5h121.5c-1,3.6-2.3,7.1-3.9,10.5H18.2z M42.2,343.9
	h65.7c-9.8,6-21.1,9.3-32.9,9.3C63.3,353.2,52,349.9,42.2,343.9z"/>
</svg>
