<?xml version="1.0" encoding="utf-8"?>
<!-- Generator: Adobe Illustrator 27.3.1, SVG Export Plug-In . SVG Version: 6.00 Build 0)  -->
<svg version="1.1" id="Layer_1" xmlns="http://www.w3.org/2000/svg" xmlns:xlink="http://www.w3.org/1999/xlink" x="0px" y="0px"
	 viewBox="0 0 150 365.2" style="enable-background:new 0 0 150 365.2;" xml:space="preserve">
<style type="text/css">
	.st0{fill:#FF0000;}
</style>
<path class="st0" d="M74.9,0L0,182.6l74.9,182.6L150,182.6L74.9,0z M85.7,57.8H64.2l4.3-10.5h12.9L85.7,57.8z M89,65.8l4.4,10.6
	H56.5l4.3-10.6H89z M96.6,84.4l4.3,10.5H49l4.3-10.5H96.6z M104.2,102.9l4.4,10.6H41.3l4.3-10.6H104.2z M111.9,121.5l4.3,10.5H33.7
	l4.3-10.5H111.9z M119.5,140l4.4,10.6H26.1l4.3-10.6H119.5z M127.1,158.6l4.3,10.5H18.5l4.3-10.5H127.1z M78.1,39.3h-6.3l3.2-7.7
	L78.1,39.3z M15.3,177.1h119.5l2.3,5.5l-2.1,5.1H15.1l-2.1-5.1L15.3,177.1z M64,307h21.8l-4.3,10.5H68.3L64,307z M60.7,299
	l-4.3-10.6h37.1L89.1,299H60.7z M53.1,280.4l-4.3-10.5h52.3l-4.3,10.5H53.1z M45.5,261.9l-4.3-10.6h67.6l-4.4,10.6H45.5z
	 M37.9,243.3l-4.3-10.5h82.8l-4.3,10.5H37.9z M30.3,224.8L26,214.2H124l-4.4,10.6H30.3z M22.7,206.2l-4.3-10.5h113.2l-4.3,10.5H22.7
	z M71.6,325.5h6.7l-3.3,8.1L71.6,325.5z"/>
</svg>
