<?xml version="1.0" encoding="utf-8"?>
<!-- Generator: Adobe Illustrator 27.3.1, SVG Export Plug-In . SVG Version: 6.00 Build 0)  -->
<svg version="1.1" id="Layer_1" xmlns="http://www.w3.org/2000/svg" xmlns:xlink="http://www.w3.org/1999/xlink" x="0px" y="0px"
	 viewBox="0 0 150 365.2" style="enable-background:new 0 0 150 365.2;" xml:space="preserve">
<style type="text/css">
	.st0{fill:#FF0000;}
</style>
<g>
	<path class="st0" d="M42.9,10c20.9,0,40.2,6.4,57.5,19c13.3,9.7,25.2,23.2,32.6,37.1c6.2,11.6,8.6,32.3,6.6,55.4
		c-1.9,22.2-7.8,43.6-15.3,55.8c-19.6,32-26.9,55-23.5,74.6c3.3,18.9,15.8,31.3,29.1,44.4c5.1,5,8.3,11.4,9.4,18.4
		c1,6.6,0.2,13.8-2.5,20.2c-4,9.7-13.4,20.2-27.6,20.2c-24.2,0-46-7.1-63.1-20.6c-14.1-11-24.3-26-28.2-40.9
		C5.8,247,7.7,211.3,23.5,187.4C39.7,163,49,145.1,48.9,126c-0.1-18.8-9.2-36.8-31.4-62.2c-11-12.6-6.4-27-3.9-32.7
		c5.6-12.5,16.8-21,27.9-21.1C42,10,42.4,10,42.9,10L42.9,10 M42.9,0c-0.5,0-0.9,0-1.4,0C11.1,0.4-13.8,43.3,10,70.4
		C50,116,45.5,136,15.2,181.9C-7.6,216.4,0,264.1,8.3,296.1c8.2,31.4,42.8,69,101,69c36,0,54.7-49.2,27.7-75.9
		c-25.6-25.4-43.1-43.2-4.2-106.7c17.2-28,24.4-92,9-121.1C127.9,35.3,94,0,42.9,0L42.9,0z"/>
</g>
</svg>
