<?xml version="1.0" encoding="utf-8"?>
<!-- Generator: Adobe Illustrator 27.3.1, SVG Export Plug-In . SVG Version: 6.00 Build 0)  -->
<svg version="1.1" id="Layer_1" xmlns="http://www.w3.org/2000/svg" xmlns:xlink="http://www.w3.org/1999/xlink" x="0px" y="0px"
	 viewBox="0 0 150 365.2" style="enable-background:new 0 0 150 365.2;" xml:space="preserve">
<style type="text/css">
	.st0{fill:#ED1C24;}
</style>
<g>
	<path class="st0" d="M109.3,360.2c-25.3,0-48.2-7.5-66.2-21.7c-14.9-11.7-25.8-27.6-30-43.6c-12.5-48-10.4-85.1,6.3-110.2
		C35,161,44,143.8,43.9,126.1c-0.1-17.5-8.8-34.6-30.2-58.9c-9-10.2-10.7-24.4-4.7-38C15.4,14.9,28.5,5.2,41.5,5c0.5,0,0.9,0,1.4,0
		c46.7,0,80.1,31.7,94.5,58.8c14.7,27.6,7.3,89.9-8.8,116.2c-41.3,67.2-20.9,87.3,4.9,112.8c11.3,11.2,14.5,28.5,8.1,44.1
		C135.6,351.2,123.2,360.2,109.3,360.2L109.3,360.2z"/>
	<path class="st0" d="M42.9,10c20.9,0,40.2,6.4,57.5,19c13.3,9.7,25.2,23.2,32.6,37.1c6.2,11.6,8.6,32.3,6.6,55.4
		c-1.9,22.2-7.8,43.6-15.3,55.8c-19.6,32-26.9,55-23.5,74.6c3.3,18.9,15.8,31.3,29.1,44.4c5.1,5,8.3,11.4,9.4,18.4
		c1,6.6,0.2,13.8-2.5,20.2c-4,9.7-13.4,20.2-27.6,20.2c-24.2,0-46-7.1-63.1-20.6c-14.1-11-24.3-26-28.2-40.9
		C5.8,247,7.7,211.3,23.5,187.4C39.7,163,49,145.1,48.9,126c-0.1-18.8-9.2-36.8-31.4-62.2c-11-12.6-6.4-27-3.9-32.7
		c5.6-12.5,16.8-21,27.9-21.1C42,10,42.4,10,42.9,10L42.9,10 M42.9,0c-0.5,0-0.9,0-1.4,0C11.1,0.4-13.8,43.3,10,70.4
		c40,45.6,35.5,65.6,5.2,111.5c-22.8,34.5-15.2,82.2-6.9,114.2c8.2,31.4,42.8,69,101,69c36,0,54.7-49.2,27.7-75.9
		c-25.6-25.4-43.1-43.2-4.2-106.7c17.2-28,24.4-92,9-121.1C127.9,35.3,94,0,42.9,0L42.9,0z"/>
</g>
</svg>
