<?xml version="1.0" encoding="utf-8"?>
<!-- Generator: Adobe Illustrator 27.3.1, SVG Export Plug-In . SVG Version: 6.00 Build 0)  -->
<svg version="1.1" id="Layer_1" xmlns="http://www.w3.org/2000/svg" xmlns:xlink="http://www.w3.org/1999/xlink" x="0px" y="0px"
	 viewBox="0 0 150 365.2" style="enable-background:new 0 0 150 365.2;" xml:space="preserve">
<style type="text/css">
	.st0{fill:#FF0000;}
</style>
<path class="st0" d="M132.8,182.5c17.2-28,24.4-92,9-121.1C127.9,35.3,94,0,42.9,0c-0.5,0-0.9,0-1.4,0C11.1,0.4-13.8,43.3,10,70.4
	C50,116,45.5,136,15.2,181.9C-7.6,216.4,0,264.1,8.3,296.1c8.2,31.4,42.8,69,101,69c36,0,54.7-49.2,27.7-75.9
	C111.4,263.8,93.9,246,132.8,182.5z M129.9,296.3c0.9,0.9,1.7,1.8,2.4,2.7H19.6c-0.7-1.8-1.2-3.6-1.7-5.4c-0.5-1.8-0.9-3.5-1.3-5.2
	H122C124.6,291,127.2,293.7,129.9,296.3z M10.2,232.8h90.5c-0.5,3.6-0.8,7.1-0.7,10.5H10.1C10,239.7,10,236.2,10.2,232.8z
	 M102.4,224.8H10.8c0.4-3.7,1-7.2,1.7-10.6h93.1C104.3,217.9,103.2,221.4,102.4,224.8z M100.7,251.3c0,0.2,0.1,0.4,0.1,0.6
	c0.6,3.5,1.6,6.9,2.8,10h-92c-0.5-3.6-0.8-7.2-1.1-10.6H100.7z M107.4,269.9c2.1,3.7,4.6,7.2,7.4,10.5h-100c-0.8-3.6-1.4-7.1-2-10.5
	H107.4z M120,47.3c2.9,3.4,5.6,6.9,8,10.5H13.4c-1.8-3.6-2.6-7.1-2.9-10.5H120z M48.7,121.5h90.9c-0.3,3.5-0.7,7-1.2,10.5H48.6
	c0.2-2,0.3-4,0.3-6C48.9,124.5,48.8,123,48.7,121.5z M132.8,65.8c0.1,0.1,0.1,0.2,0.2,0.3c1.5,2.9,2.9,6.4,3.9,10.3h-109
	c-2.6-3.4-5.5-6.9-8.7-10.6H132.8z M138.6,84.4c0.6,3.3,1,6.8,1.2,10.5H40.2c-1.8-3.4-4-6.9-6.5-10.5H138.6z M140.2,102.9
	c0.1,3.4,0,7-0.1,10.6H47.5c-0.8-3.5-1.9-7-3.4-10.6H140.2z M47.3,140h89.8c-0.7,3.6-1.5,7.2-2.3,10.6H44
	C45.4,147,46.5,143.5,47.3,140z M132.4,158.6c-1.2,3.8-2.5,7.3-3.9,10.5H34.9c2.1-3.6,3.9-7.1,5.6-10.5H132.4z M41.5,10
	c0.5,0,0.9,0,1.4,0c15,0,29.1,3.3,42.3,9.8h-64C26.9,13.8,34.2,10.1,41.5,10z M15.3,27.8h83.4c0.6,0.4,1.1,0.8,1.7,1.2
	c4.2,3.1,8.3,6.6,12.2,10.3H11.1c0.6-3.4,1.7-6.3,2.5-8.2C14.1,30,14.7,28.9,15.3,27.8z M30.1,177.1h94.3c0,0.1-0.1,0.1-0.1,0.2
	c-2.2,3.6-4.2,7-6.1,10.4H23.3c0.1-0.1,0.1-0.2,0.2-0.3C25.9,183.8,28.1,180.4,30.1,177.1z M18.9,195.5v0.2h95
	c-1.9,3.6-3.5,7.1-5,10.5H14.7C15.9,202.5,17.3,198.9,18.9,195.5z M36.2,325.5h103.1c-0.4,3.2-1.3,6.4-2.5,9.4
	c-0.1,0.3-0.3,0.6-0.4,0.9H47.8c-0.6-0.4-1.2-0.9-1.7-1.3C42.6,331.7,39.3,328.7,36.2,325.5z M109.2,355.1
	c-17.8,0-34.4-3.9-48.7-11.3h71C126.5,350.1,119,355.1,109.2,355.1z M139.6,317.5h-110c-2.5-3.4-4.7-6.9-6.5-10.5h114
	c1,2.5,1.7,5,2.2,7.7C139.4,315.6,139.5,316.6,139.6,317.5z"/>
</svg>
