<?xml version="1.0" encoding="utf-8"?>
<!-- Generator: Adobe Illustrator 27.3.1, SVG Export Plug-In . SVG Version: 6.00 Build 0)  -->
<svg version="1.1" id="Layer_1" xmlns="http://www.w3.org/2000/svg" xmlns:xlink="http://www.w3.org/1999/xlink" x="0px" y="0px"
	 viewBox="0 0 150 365.2" style="enable-background:new 0 0 150 365.2;" xml:space="preserve">
<style type="text/css">
	.st0{fill:#FF0000;}
</style>
<g>
	<path class="st0" d="M75,12c16.7,0,32.5,6.6,44.5,18.5C131.4,42.5,138,58.3,138,75v215.2c0,16.7-6.6,32.5-18.5,44.5
		c-11.9,11.9-27.7,18.5-44.5,18.5c-16.7,0-32.5-6.6-44.5-18.5c-11.9-12-18.5-27.8-18.5-44.5V75c0-16.7,6.6-32.5,18.5-44.5
		C42.5,18.6,58.3,12,75,12 M75,0L75,0C33.8,0,0,33.7,0,75v215.2c0,41.2,33.8,75,75,75l0,0c41.2,0,75-33.7,75-75V75
		C150,33.7,116.2,0,75,0L75,0z"/>
</g>
</svg>
